<svg width="410" height="410" viewBox="0 0 410 410" fill="none" xmlns="http://www.w3.org/2000/svg">
<mask id="path-1-inside-1_2_2" fill="white">
<path fill-rule="evenodd" clip-rule="evenodd" d="M244.74 64L310 64C332.091 64 350 81.9086 350 104V162.922C379.277 170.096 401 196.511 401 228C401 259.489 379.277 285.904 350 293.078V364C350 386.091 332.091 404 310 404H243.757C243.602 372.995 218.42 347.909 187.379 347.909C156.338 347.909 131.156 372.995 131.001 404H50C27.9086 404 10 386.091 10 364L10 290.091C41.0049 289.936 66.0914 264.754 66.0914 233.712C66.0914 202.671 41.0049 177.489 10 177.334L10 104C10 81.9086 27.9086 64 50 64L113.26 64C119.313 33.2189 146.445 10 179 10C211.555 10 238.687 33.2189 244.74 64Z"/>
</mask>
<path fill-rule="evenodd" clip-rule="evenodd" d="M244.74 64L310 64C332.091 64 350 81.9086 350 104V162.922C379.277 170.096 401 196.511 401 228C401 259.489 379.277 285.904 350 293.078V364C350 386.091 332.091 404 310 404H243.757C243.602 372.995 218.42 347.909 187.379 347.909C156.338 347.909 131.156 372.995 131.001 404H50C27.9086 404 10 386.091 10 364L10 290.091C41.0049 289.936 66.0914 264.754 66.0914 233.712C66.0914 202.671 41.0049 177.489 10 177.334L10 104C10 81.9086 27.9086 64 50 64L113.26 64C119.313 33.2189 146.445 10 179 10C211.555 10 238.687 33.2189 244.74 64Z" fill="#303030"/>
<path d="M244.74 64L225.115 67.8586L228.289 84L244.74 84V64ZM350 162.922H330V178.614L345.24 182.348L350 162.922ZM350 293.078L345.24 273.652L330 277.386V293.078H350ZM243.757 404L223.758 404.1L223.857 424H243.757V404ZM131.001 404V424H150.901L151 404.1L131.001 404ZM10 364H-9.99999H10ZM10 290.091L9.90008 270.091L-9.99999 270.19L-9.99999 290.091H10ZM10 177.334H-9.99999L-9.99999 197.234L9.9001 197.334L10 177.334ZM113.26 64V84H129.711L132.885 67.8586L113.26 64ZM310 44L244.74 44V84H310V44ZM370 104C370 70.8629 343.137 44 310 44V84C321.046 84 330 92.9543 330 104H370ZM370 162.922V104H330V162.922H370ZM421 228C421 187.085 392.775 152.812 354.76 143.497L345.24 182.348C365.779 187.38 381 205.937 381 228H421ZM354.76 312.503C392.775 303.188 421 268.915 421 228H381C381 250.063 365.779 268.62 345.24 273.652L354.76 312.503ZM370 364V293.078H330V364H370ZM310 424C343.137 424 370 397.137 370 364H330C330 375.046 321.046 384 310 384V424ZM243.757 424H310V384H243.757V424ZM187.379 367.909C207.408 367.909 223.658 384.096 223.758 404.1L263.757 403.9C263.547 361.894 229.433 327.909 187.379 327.909V367.909ZM151 404.1C151.1 384.096 167.35 367.909 187.379 367.909V327.909C145.325 327.909 111.211 361.894 111.001 403.9L151 404.1ZM50 424H131.001V384H50L50 424ZM-9.99999 364C-9.99999 397.137 16.8629 424 50 424L50 384C38.9543 384 30 375.046 30 364H-9.99999ZM-9.99999 290.091L-9.99999 364H30L30 290.091H-9.99999ZM46.0914 233.712C46.0914 253.741 29.904 269.991 9.90008 270.091L10.0999 310.09C52.1059 309.881 86.0914 275.766 86.0914 233.712H46.0914ZM9.9001 197.334C29.904 197.434 46.0914 213.683 46.0914 233.712H86.0914C86.0914 191.659 52.1059 157.544 10.0999 157.334L9.9001 197.334ZM-9.99999 104L-9.99999 177.334H30L30 104L-9.99999 104ZM50 44C16.8629 44 -9.99999 70.8629 -9.99999 104H30C30 92.9543 38.9543 84 50 84L50 44ZM113.26 44L50 44L50 84L113.26 84L113.26 44ZM132.885 67.8586C137.128 46.2757 156.185 30 179 30V-10C136.704 -10 101.497 20.1622 93.6361 60.1414L132.885 67.8586ZM179 30C201.815 30 220.872 46.2757 225.115 67.8586L264.364 60.1414C256.503 20.1622 221.296 -10 179 -10V30Z" fill="url(#paint0_linear_2_2)" mask="url(#path-1-inside-1_2_2)"/>
<defs>
<linearGradient id="paint0_linear_2_2" x1="4.99997" y1="61" x2="349.068" y2="404.932" gradientUnits="userSpaceOnUse">
<stop stop-color="#3DE26B"/>
<stop offset="1" stop-color="#45CCF7"/>
</linearGradient>
</defs>
</svg>
